<svg aria-hidden="true" style="position:absolute; width:0; height:0; overflow:hidden" xmlns="http://www.w3.org/2000/svg">
<defs>
<symbol id="email-icon"><path d="M14.5 0h-13C.673 0 0 .6729 0 1.5v9c0 .8271.6729 1.5 1.5 1.5h13c.8271 0 1.5-.6729 1.5-1.5v-9C16 .673 15.3271 0 14.5 0Zm0 1a.4972.4972 0 0 1 .1916.0387L8 6.8384 1.3083 1.0387A.4978.4978 0 0 1 1.5 1h13Zm0 10h-13a.5003.5003 0 0 1-.5-.5V2.0952L7.6724 7.878A.4995.4995 0 0 0 8 8a.4993.4993 0 0 0 .3276-.122L15 2.0952V10.5c0 .2759-.2241.5-.5.5Z"/>
</symbol>

<symbol id="tel-icon"><path d="M8.5 0h-7C.6728 0 0 .6728 0 1.5v13c0 .8272.6728 1.5 1.5 1.5h7c.8271 0 1.5-.6728 1.5-1.5v-13C10 .6728 9.3271 0 8.5 0Zm-7 1h7c.2759 0 .5.2241.5.5V12H1V1.5c0-.2759.2241-.5.5-.5Zm7 14h-7a.5003.5003 0 0 1-.5-.5V13h8v1.5c0 .2759-.2241.5-.5.5Z"/><path d="M2.3535 13.7389c.1953.1824.1953.478 0 .6603-.1952.1824-.5118.1824-.707 0-.1953-.1823-.1953-.4779 0-.6603.1952-.1823.5118-.1823.707 0Z"/>
</symbol>

<symbol id="facebook" viewBox="0 0 32 32"><path d="M19 6h5V0h-5c-3.86 0-7 3.14-7 7v3H8v6h4v16h6V16h5l1-6h-6V7c0-.542.458-1 1-1z"/>
</symbol>

<symbol id="instagram" viewBox="0 0 32 32"><path d="M16 2.881c4.275 0 4.781.019 6.462.094 1.563.069 2.406.331 2.969.55.744.288 1.281.638 1.837 1.194.563.563.906 1.094 1.2 1.838.219.563.481 1.412.55 2.969.075 1.688.094 2.194.094 6.463s-.019 4.781-.094 6.463c-.069 1.563-.331 2.406-.55 2.969-.288.744-.637 1.281-1.194 1.837-.563.563-1.094.906-1.837 1.2-.563.219-1.413.481-2.969.55-1.688.075-2.194.094-6.463.094s-4.781-.019-6.463-.094c-1.563-.069-2.406-.331-2.969-.55-.744-.288-1.281-.637-1.838-1.194-.563-.563-.906-1.094-1.2-1.837-.219-.563-.481-1.413-.55-2.969-.075-1.688-.094-2.194-.094-6.463s.019-4.781.094-6.463c.069-1.563.331-2.406.55-2.969.288-.744.638-1.281 1.194-1.838.563-.563 1.094-.906 1.838-1.2.563-.219 1.412-.481 2.969-.55 1.681-.075 2.188-.094 6.463-.094zM16 0c-4.344 0-4.887.019-6.594.094-1.7.075-2.869.35-3.881.744-1.056.412-1.95.956-2.837 1.85-.894.888-1.438 1.781-1.85 2.831C.444 6.538.169 7.7.094 9.4.019 11.113 0 11.656 0 16s.019 4.887.094 6.594c.075 1.7.35 2.869.744 3.881.413 1.056.956 1.95 1.85 2.837.887.887 1.781 1.438 2.831 1.844 1.019.394 2.181.669 3.881.744 1.706.075 2.25.094 6.594.094s4.888-.019 6.594-.094c1.7-.075 2.869-.35 3.881-.744 1.05-.406 1.944-.956 2.831-1.844s1.438-1.781 1.844-2.831c.394-1.019.669-2.181.744-3.881.075-1.706.094-2.25.094-6.594s-.019-4.887-.094-6.594c-.075-1.7-.35-2.869-.744-3.881-.394-1.063-.938-1.956-1.831-2.844-.887-.887-1.781-1.438-2.831-1.844-1.019-.394-2.181-.669-3.881-.744-1.712-.081-2.256-.1-6.6-.1z"/><path d="M16 7.781c-4.537 0-8.219 3.681-8.219 8.219s3.681 8.219 8.219 8.219 8.219-3.681 8.219-8.219c0-4.537-3.681-8.219-8.219-8.219zm0 13.55c-2.944 0-5.331-2.387-5.331-5.331s2.387-5.331 5.331-5.331c2.944 0 5.331 2.387 5.331 5.331S18.944 21.331 16 21.331zM26.462 7.456c0 1.06-.859 1.919-1.919 1.919s-1.919-.859-1.919-1.919.859-1.919 1.919-1.919 1.919.859 1.919 1.919z"/>
</symbol>

<symbol id="twitter" viewBox="0 0 32 32"><path d="M32 7.075c-1.175.525-2.444.875-3.769 1.031 1.356-.813 2.394-2.1 2.887-3.631-1.269.75-2.675 1.3-4.169 1.594C25.749 4.794 24.043 4 22.155 4c-3.625 0-6.563 2.938-6.563 6.563 0 .512.056 1.012.169 1.494-5.456-.275-10.294-2.888-13.531-6.862-.563.969-.887 2.1-.887 3.3 0 2.275 1.156 4.287 2.919 5.463-1.075-.031-2.087-.331-2.975-.819v.081c0 3.181 2.263 5.838 5.269 6.437-.55.15-1.131.231-1.731.231-.425 0-.831-.044-1.237-.119.838 2.606 3.263 4.506 6.131 4.563-2.25 1.762-5.075 2.813-8.156 2.813-.531 0-1.05-.031-1.569-.094 2.913 1.869 6.362 2.95 10.069 2.95 12.075 0 18.681-10.006 18.681-18.681 0-.287-.006-.569-.019-.85 1.281-.919 2.394-2.075 3.275-3.394z"/>
</symbol>

<symbol id="linkedin" viewBox="0 0 32 32"><path d="M12 12h5.535v2.837h.079c.77-1.381 2.655-2.837 5.464-2.837C28.92 12 30 15.637 30 20.367V30h-5.769v-8.54c0-2.037-.042-4.657-3.001-4.657-3.005 0-3.463 2.218-3.463 4.509V30H12V12zM2 12h6v18H2V12zM8 7c0 1.657-1.343 3-3 3S2 8.657 2 7s1.343-3 3-3 3 1.343 3 3z"/>
</symbol>

<symbol id="antena"><path d="M67.3163 48.3385 48.8468 29.7337l2.0498-10.0964a4.6548 4.6548 0 0 0 1.659.3185h.014c2.6081.0308 4.7473-2.0584 4.7783-4.6665.0309-2.6081-2.0585-4.7473-4.6666-4.7782-2.6081-.0308-4.7473 2.0584-4.7782 4.6665a4.719 4.719 0 0 0 .2729 1.6387l-10.85 1.3242L19.6276.35A1.1664 1.1664 0 0 0 18.804 0a1.1665 1.1665 0 0 0-.8167.3395l-3.3087 3.29c-.4554.4556-.4554 1.194 0 1.6497l1.7804 1.806C9.5616 19.768 11.8019 35.474 21.9703 45.7228c.0933.0893.2015.1615.3197.2135a6.7707 6.7707 0 0 0-.1144 1.197v13.5334h-14c-3.22.0038-5.8295 2.6133-5.8333 5.8333v2.3333c0 .6443.5224 1.1667 1.1667 1.1667h53.6666c.6443 0 1.1667-.5224 1.1667-1.1667V66.5c-.0038-3.22-2.6133-5.8295-5.8333-5.8333h-14v-5.9979a32.879 32.879 0 0 0 6.6686.7 32.4831 32.4831 0 0 0 15.4-3.9013l1.7897 1.8002c.2171.2215.5135.3475.8237.35a1.1668 1.1668 0 0 0 .8166-.3395l3.3087-3.29c.4554-.4556.4554-1.1941 0-1.6497ZM50.9246 13.6348c.9137-.9088 2.3911-.9047 3.2998.0089.9088.9137.9047 2.3911-.0089 3.2998a2.3335 2.3335 0 0 1-1.646.679h-.007c-1.2886-.0067-2.328-1.0567-2.3213-2.3454a2.3341 2.3341 0 0 1 .6879-1.6423h-.0045Zm-2.7463 7.6662-1.309 6.4435-2.5713-2.5865 3.8803-3.857Zm-1.3253-1.9728-4.2 4.1755-3.2492-3.2667 7.4492-.9088ZM52.509 63c1.933 0 3.5 1.567 3.5 3.5v1.1667H4.6756V66.5c0-1.933 1.567-3.5 3.5-3.5H52.509Zm-16.3334-4.6667v2.3334H24.509v-2.3334h11.6666ZM24.509 56v-8.8667C24.509 44.303 27.1258 42 30.3423 42c3.2165 0 5.8333 2.303 5.8333 5.1333V56H24.509Zm14-3.71v-5.1567c0-4.1171-3.6634-7.4666-8.1667-7.4666a8.3122 8.3122 0 0 0-7.1773 3.9071c-8.8763-9.3489-10.8751-23.2863-4.9845-34.753L58.872 49.7454A30.233 30.233 0 0 1 38.509 52.29Zm24.6948-1.4957L61.56 49.1412 18.7923 6.1157l-1.6508-1.6544 1.6508-1.645L36.15 20.272c.0081 0 .0128.0152.021.021l28.6883 28.8563-1.6555 1.645Z" fill="#212121"/><path d="M30.3528 44.3333h-.0105c-1.933-.0029-3.5023 1.5617-3.5053 3.4948-.0029 1.933 1.5618 3.5023 3.4948 3.5052h.0105c1.933.0029 3.5023-1.5617 3.5052-3.4947.003-1.9331-1.5617-3.5024-3.4947-3.5053Zm.8167 4.3272a1.1671 1.1671 0 0 1-.8272.3395c-.6443-.0034-1.1639-.5284-1.1606-1.1727a1.1666 1.1666 0 0 1 1.1606-1.1606c.6443.0033 1.1639.5283 1.1605 1.1726a1.1672 1.1672 0 0 1-.3438.8212h.0105Z" fill="#2196F3"/>
</symbol>

<symbol id="clock"><g clip-path="url(#a)"><path d="M68.4614 33.4715C68.4576 14.9819 53.4656-.0037 34.9754 0 16.4858.0037 1.5002 14.9963 1.5039 33.4859c.0032 14.5643 9.4213 27.4554 23.2956 31.8854.1324.0417.2702.063.4086.0625a1.477 1.477 0 0 0 .7492-.2051 1.394 1.394 0 0 0 .6195-.7797l8.4547-26.7969c2.3114-.0117 4.1753-1.8953 4.163-4.2062-.0118-2.3114-1.8948-4.1753-4.2062-4.1635a4.1272 4.1272 0 0 0-1.7939.4187L22.0251 18.5302c-.5544-.5351-1.4372-.5196-1.9723.0342-.5223.541-.5223 1.3976 0 1.9386l11.1634 11.1762c-.8566 1.7485-.3669 3.8591 1.1733 5.0511l-8.0557 25.5344C8.4135 56.4002.2617 38.7405 6.1262 22.8203 11.9907 6.9 29.6503-1.2518 45.5706 4.6127 61.4909 10.477 69.6427 28.1374 63.7782 44.057a30.7208 30.7208 0 0 1-16.3234 17.4418l-.8706-4.1c-.1591-.7535-.8998-1.2353-1.6534-1.0756a1.4021 1.4021 0 0 0-.6398.3242l-8.3932 7.4934c-.5758.5121-.627 1.3938-.1143 1.9696.1666.1869.3802.3257.6195.4021l10.7158 3.4201c.7333.2355 1.5189-.1677 1.7544-.9015a1.395 1.395 0 0 0 .0369-.7167l-.8556-4.023c12.3907-5.2237 20.4357-17.3735 20.4069-30.82Zm-33.4785-1.3949c.7701 0 1.395.6248 1.395 1.3949 0 .7707-.6249 1.395-1.395 1.395-.7706 0-1.3949-.6243-1.3949-1.395 0-.7701.6243-1.3949 1.3949-1.3949Zm4.5945 32.515 4.7777-4.2618 1.3186 6.2132-6.0963-1.9514Z" fill="#212121"/><path d="M33.5879 6.9673v2.79c0 .7706.6243 1.3949 1.3949 1.3949.7702 0 1.395-.6243 1.395-1.395V6.9673c0-.7701-.6248-1.395-1.395-1.395-.7706 0-1.3949.6249-1.3949 1.395ZM8.4787 32.0765c-.7706 0-1.395.6249-1.395 1.395 0 .7706.6243 1.395 1.395 1.395h2.7899c.7707 0 1.395-.6244 1.395-1.395 0-.7701-.6243-1.395-1.395-1.395H8.4787ZM61.4865 34.8665c.7707 0 1.395-.6244 1.395-1.395 0-.7701-.6243-1.395-1.395-1.395h-2.7899c-.7701 0-1.395.6249-1.395 1.395 0 .7706.6249 1.395 1.395 1.395h2.7899Z" fill="#2196F3"/></g><defs><clipPath id="a"><path fill="#fff" d="M0 0h70v70H0z"/></clipPath></defs>
</symbol>

<symbol id="diagram"><g clip-path="url(#a)"><path d="M32.6496 32.7351h2.3321v10.4945h-2.3321V32.7351ZM41.978 37.3993h2.3321v5.8303H41.978v-5.8303ZM23.3211 40.8975h2.3321v2.3321h-2.3321v-2.3321ZM16.3248 39.7314h2.3321v3.4981h-2.3321v-3.4981Z" fill="#2196F3"/><path d="M3.4982 61.8865h55.9707c1.9318 0 3.4981-1.5663 3.4981-3.4982v-4.6642c0-1.9319-1.5663-3.4982-3.4981-3.4982h-1.1661V21.1468l6.6234-6.2744c1.5373.7579 3.398.2978 4.404-1.0909 1.0067-1.3881.8655-3.2994-.3336-4.5247-1.1991-1.2253-3.1065-1.408-4.5168-.4327-1.4097.9759-1.9108 2.8257-1.1865 4.3795l-4.9905 4.7309v-2.6903c0-1.9318-1.5663-3.4981-3.4982-3.4981H8.1624c-1.9319 0-3.4982 1.5663-3.4982 3.4981v34.9817h-1.166C1.5663 50.2259 0 51.7922 0 53.7241v4.6642c0 1.9319 1.5663 3.4982 3.4982 3.4982ZM66.4652 10.58c.6439 0 1.166.5221 1.166 1.1661 0 .6439-.5221 1.166-1.166 1.166-.644 0-1.1661-.5221-1.1661-1.166 0-.644.5221-1.1661 1.1661-1.1661ZM6.9963 15.2442c0-.6439.5221-1.166 1.166-1.166h46.6423c.644 0 1.1661.5221 1.1661 1.166v4.8971l-2.3321 2.216v-4.781c0-.6439-.5221-1.166-1.1661-1.166h-41.978c-.644 0-1.166.5221-1.166 1.166v29.1514c0 .644.522 1.1661 1.166 1.1661h41.978c.644 0 1.1661-.5221 1.1661-1.1661V25.5651l2.3321-2.2097v26.8705H6.9963V15.2442ZM17.4908 30.403c-1.5777-.0046-2.9629 1.0465-3.3825 2.5672-.4197 1.5208.23 3.1338 1.5868 3.9389 1.3562.8051 3.0842.6029 4.2178-.4942l4.0533 2.0337a1.1658 1.1658 0 0 0 1.3921-.2681l8.6162-9.6934 8.4698 6.3466a1.1668 1.1668 0 0 0 1.5009-.0859l7.3613-6.973v17.7869H11.6606V18.7424h39.6459v5.8195l-8.2501 7.8128-8.541-6.4031c-.4851-.3632-1.1678-.2949-1.5709.1577l-8.7346 9.8278-3.2653-1.6329a3.304 3.304 0 0 0 .0444-.4231c0-1.9318-1.5663-3.4981-3.4982-3.4981Zm1.1661 3.4981c0 .644-.5221 1.1661-1.1661 1.1661-.6439 0-1.166-.5221-1.166-1.1661 0-.6439.5221-1.166 1.166-1.166.644 0 1.1661.5221 1.1661 1.166Zm6.9963 18.6569h11.6606v1.1661c0 .6439-.5221 1.166-1.1661 1.166h-9.3284c-.644 0-1.1661-.5221-1.1661-1.166V52.558Zm-23.321 1.1661c0-.644.522-1.1661 1.166-1.1661H23.321v1.1661c0 1.9318 1.5663 3.4982 3.4982 3.4982h9.3284c1.9319 0 3.4982-1.5664 3.4982-3.4982V52.558h19.823c.6439 0 1.166.5221 1.166 1.1661v4.6642c0 .644-.5221 1.1661-1.166 1.1661H3.4982c-.644 0-1.166-.5221-1.166-1.1661v-4.6642Z" fill="#212121"/></g><defs><clipPath id="a"><path fill="#fff" d="M0 0h70v70H0z"/></clipPath></defs>
</symbol>

<symbol id="astronaut"><path d="M69.9433 9.8964a1.1682 1.1682 0 0 0-.9415-.7934l-4.179-.6078-1.8702-3.787c-.392-.7981-1.6999-.7981-2.0918 0l-1.8702 3.787-4.1792.608a1.1694 1.1694 0 0 0-.9427.7933c-.1364.4224-.0234.8867.2952 1.1959l3.0252 2.9483-.7139 4.1627c-.0747.4375.105.8797.4632 1.1411a1.161 1.161 0 0 0 1.2296.0886l3.7381-1.9659 3.7381 1.9659c.1704.0898.3582.1341.5437.1341.2415 0 .4831-.0746.6861-.2228a1.165 1.165 0 0 0 .4632-1.1411l-.7139-4.1628 3.0252-2.9482a1.1704 1.1704 0 0 0 .2948-1.1959Zm-5.3877 2.9027a1.1669 1.1669 0 0 0-.3348 1.0325l.4177 2.4372-2.1886-1.1503a1.1636 1.1636 0 0 0-.5438-.1342c-.1866 0-.3721.0443-.5437.1342l-2.1888 1.1503.4177-2.4372a1.1677 1.1677 0 0 0-.3348-1.0325l-1.7722-1.7266 2.4477-.3559a1.1664 1.1664 0 0 0 .8786-.6382l1.0943-2.2167 1.0943 2.2167c.1704.3441.4982.5834.8786.6382l2.4477.3559-1.7699 1.7266ZM57.167 44.8923h-2.3334v2.3334h2.3334v-2.3334ZM57.167 49.5591h-2.3334v2.3334h2.3334v-2.3334ZM59.5004 47.2257H57.167v2.3334h2.3334v-2.3334ZM54.8337 47.2257h-2.3334v2.3334h2.3334v-2.3334ZM49.0002 57.7259h-2.3334v2.3334h2.3334v-2.3334ZM49.0002 62.3926h-2.3334v2.3334h2.3334v-2.3334ZM51.3337 60.0593h-2.3335v2.3334h2.3335v-2.3334ZM46.6668 60.0593h-2.3334v2.3334h2.3334v-2.3334ZM35 53.0592h-2.3334v2.3334H35v-2.3334ZM35 57.7259h-2.3334v2.3334H35v-2.3334ZM37.3334 55.3925H35v2.3334h2.3334v-2.3334ZM32.6666 55.3925h-2.3334v2.3334h2.3334v-2.3334ZM12.833 13.3918h-2.3334v2.3334h2.3334v-2.3334ZM12.833 18.0587h-2.3334v2.3334h2.3334v-2.3334ZM15.1663 15.7253h-2.3334v2.3334h2.3334v-2.3334ZM10.4996 15.7253H8.1662v2.3334h2.3334v-2.3334Z" fill="#2196F3"/><path d="M54.0635 30.9738c-.6287-.8482-1.5516-1.3941-2.5993-1.5412-1.0523-.1493-2.0907.1271-2.9307.77l-2.7383 2.0988-.0012.0012-4.1511 3.0999-2.9704-1.183c5.2967-2.3765 8.9987-7.6745 8.9987-13.8253 0-8.3628-6.831-15.1668-15.2276-15.1668s-15.2274 6.804-15.2274 15.1668c0 3.0311.9064 5.8498 2.45 8.2216l-6.0458-.0525h-.0105c-.0187 0-.0338.0093-.0513.0105a1.1432 1.1432 0 0 0-.3395.0677c-.028.0105-.0571.0164-.0839.0291-.014.0059-.028.007-.042.014l-7.0724 3.4918c-.0013 0-.0023 0-.0023.0011l-4.1419 1.9918a.8978.8978 0 0 0-.1377.077C.088 35.3452-.4743 37.5036.43 39.2676c.4819.938 1.302 1.6288 2.3101 1.9449a3.9556 3.9556 0 0 0 1.1795.1808c.6336 0 1.2613-.1551 1.8363-.4619l3.0358-1.6147 4.9525-2.5574 2.9681-.0175L4.8085 48.5884c-.0011.0012-.0024.0012-.0036.0023l-2.9284 2.9167c-.6918.6884-1.0722 1.6018-1.0722 2.5761 0 .973.3804 1.8888 1.0722 2.5784.7105.707 1.645 1.0617 2.5795 1.0617.9357 0 1.869-.3547 2.5818-1.0617l2.8747-2.8631 3.8081-2.8432 1.9706 1.9623-3.8536 3.8373c-.0011.0012-.0024.0012-.0036.0023l-2.9284 2.9166c-.6918.6884-1.0722 1.6019-1.0722 2.5761 0 .9731.3804 1.8888 1.0722 2.5785.7105.7069 1.6462 1.0616 2.5807 1.0616.9345 0 1.8702-.3547 2.5819-1.0616l2.9295-2.9167 4.6865-4.6667c.0012-.0012.0012-.0023.0023-.0036l2.2086-2.1875-.0082-.0082c.014-.0139.0338-.0187.0479-.0338l11.3005-12.3773 7.5928 1.0804c.0548.0082.1096.0116.1645.0116.1412 0 .2777-.0338.4095-.084.0385-.0139.0723-.0326.1085-.0512.042-.0211.0863-.0327.1261-.0595l7.0292-4.6667c.0257-.0175.0397-.0455.0641-.0641.028-.0222.0631-.0315.0886-.0561l2.7813-2.6052c1.4472-1.356 1.6467-3.5773.4636-5.1663ZM4.6603 38.8722c-.3792.203-.8097.2438-1.2215.1132-.4084-.1271-.7397-.4061-.9334-.7829-.3523-.686-.1482-1.5214.469-1.9728l2.8736-1.3826.6918 2.0219.2905.8493-2.17 1.1539Zm7.6499-3.9981-3.3868 1.75-.5588-1.6334-.4013-1.1737 4.4335-2.1888-.0866 3.2459Zm33.03-14.4822c0 2.009-.4795 3.9038-1.3102 5.5989l-9.1468-4.1546c-.0957-1.2541-.7466-2.352-1.7243-3.0357l3.2026-10.632c5.2011 1.6545 8.9787 6.5067 8.9787 12.2234Zm-25.7883 0c0-7.076 5.7844-12.8336 12.8942-12.8336.553 0 1.0943.0467 1.6298.1143l-3.1325 10.3988c-.042-.0013-.0817-.0129-.1249-.0129-2.2587 0-4.0963 1.8317-4.0963 4.0834s1.8376 4.0835 4.0963 4.0835c1.519 0 2.8315-.8388 3.5397-2.0663l8.4491 3.8385c-2.3509 3.164-6.1135 5.2279-10.3614 5.2279-7.1096 0-12.894-5.7576-12.894-12.8336Zm13.0295 1.75c0 .9649-.7911 1.7501-1.7629 1.7501-.9718 0-1.7628-.7852-1.7628-1.7501 0-.9648.791-1.75 1.7628-1.75.9718 0 1.7629.7852 1.7629 1.75ZM5.3919 55.0075c-.5168.5121-1.3534.511-1.869.0012-.2486-.2486-.385-.5763-.385-.9252 0-.3477.1364-.6755.385-.9216l2.1045-2.0967 1.862 1.854-2.0975 2.0883Zm7.0303 8.1668c-.5168.5122-1.3545.5134-1.8702.0013-.2486-.2486-.385-.5763-.385-.9252 0-.3477.1364-.6756.385-.9217l2.1059-2.0977.8809.8763.9823.9777-2.0989 2.0893Zm7.6162-7.5881c-.0013.0011-.0024.0011-.0036.0023l-3.8606 3.8501-.8809-.8763-.9823-.9777 3.857-3.8395v-.0011c.0013-.0012.0023-.0012.0036-.0023.0875-.0875.1423-.1925.196-.2963.0152-.0303.0443-.056.0572-.0875.0362-.0898.042-.1866.056-.2812.007-.0538.0304-.1038.0304-.1588 0-.0782-.028-.1539-.0443-.231-.014-.07-.014-.1412-.0409-.2088-.0443-.1096-.1202-.2064-.1995-.301-.0221-.0257-.0303-.0584-.0548-.0829h-.0012c-.0012-.0011-.0012-.0036-.0023-.0046l-3.5153-3.5001c-.0373-.0373-.0851-.0525-.1271-.0839-.0618-.0479-.1213-.0922-.1902-.1261-.0664-.0327-.1341-.0525-.2041-.0712-.0747-.0211-.147-.0374-.2252-.0432-.0712-.0047-.1377.0023-.2088.0105-.0782.0093-.1516.0198-.2275.0443-.0735.0234-.1388.0595-.2064.098-.0432.0245-.0922.0327-.1331.063l-3.8791 2.8958-1.9706-1.9624 5.2478-5.2197 9.5388 9.3814-2.029 2.0102Zm14.9161-15.349c-.0338-.0046-.0654.0082-.0991.0059a1.1477 1.1477 0 0 0-.252.0152c-.0665.0116-.1295.0245-.1925.0466-.0747.0257-.1423.0607-.2113.1027a1.1192 1.1192 0 0 0-.1819.1341c-.0281.0245-.0618.0362-.0875.0641L23.6527 51.8621l-9.4676-9.3114 6.1974-6.1648c.4562-.455.4586-1.1935.0035-1.6509-.2298-.2298-.5319-.343-.8341-.3418v-.0011l-4.8534.0292.0607-3.5164 6.7901.0584c2.7673 2.8304 6.6267 4.5956 10.8968 4.5956.9566 0 1.89-.0991 2.7988-.2684.0875.07.1737.1413.2835.1856l5.2712 2.1.3336 1.659.3896 1.9366-6.5683-.9345Zm8.8399.3897-.6848-3.4079 3.164-2.3626.8284 1.099 1.2425 1.6497-4.5501 3.0218Zm8.2111-6.1928-1.8329 1.7174-2.037-2.7044 1.8188-1.3941c.3395-.2613.7677-.3675 1.1877-.3127.4223.0595.7957.28 1.05.6218.4738.6382.3932 1.5284-.1866 2.072Z" fill="#212121"/><path d="m29.7545 40.5651-4.6877-4.6667c-.4538-.4538-1.1913-.4538-1.6463 0l-4.6865 4.6667a1.1722 1.1722 0 0 0-.343.8271c0 .3104.1225.6079.343.8272l4.6865 4.6667c.2275.2263.5263.3395.8238.3395s.5961-.1132.8225-.3395l4.6877-4.6667a1.1713 1.1713 0 0 0 .3442-.8272c0-.3103-.1238-.6078-.3442-.8271Zm-5.5102 3.8477-3.0334-3.0206 3.0334-3.0205 3.0345 3.0205-3.0345 3.0206ZM37.5468 11.0923l-.5635 2.2658c.1552.0385 3.8011.9882 3.8011 4.7006h2.3334c-.0001-4.4126-3.6436-6.4869-5.571-6.9664ZM43.1178 20.3919h-2.3334v2.3334h2.3334v-2.3334Z" fill="#212121"/>
</symbol>

<symbol id="client1"><path d="m6 .7131 7.0078 6.6342L0 7.3396v32.1873h34V27.2202l7 6.6267V.7131H6Zm27.6924 25.7284L13.8226 7.6311h19.8698v18.8104Zm-6.1693 8.3772H5.3801V13.1711h1.5652v20.1817h20.5778v1.4659Zm-16.9142 8.9936-.8179 1.6845-.8179-1.6845h-.686l1.1939 2.246v1.3086h.6201v-1.3086l1.1914-2.246h-.6836Zm1.0278 3.5546.2881-.8276h1.377l.2905.8276h.6445l-1.3452-3.5546h-.5542l-1.3428 3.5546h.6421Zm.9766-2.8002.5151 1.4746h-1.0303l.5152-1.4746Zm3.2568 1.3891a.8077.8077 0 0 0-.1343.4517c0 .2995.105.5428.315.73.2116.1855.4931.2783.8447.2783s.6543-.0952.9082-.2857l.2002.2368h.6885l-.5225-.6176c.2051-.28.3076-.6389.3076-1.0767h-.5151c0 .2393-.0496.4566-.1489.6519l-.6861-.8106.2417-.1758c.1709-.1237.2938-.2474.3687-.3711a.7847.7847 0 0 0 .1123-.4101c0-.2246-.083-.4126-.249-.564-.1644-.153-.376-.2295-.6348-.2295-.2865 0-.5143.0814-.6836.2442-.1693.1611-.2539.3808-.2539.6591 0 .114.0269.232.0806.3541.0553.122.1522.2701.2905.4443-.2637.1888-.4403.3524-.5298.4907Zm1.604.7861c-.1741.1335-.3613.2002-.5615.2002-.1774 0-.319-.0512-.4248-.1538-.1058-.1025-.1587-.236-.1587-.4004 0-.1904.0977-.3597.293-.5078l.0757-.0537.7763.9155Zm-.6372-1.5747c-.1676-.2067-.2515-.3784-.2515-.5151 0-.1188.0342-.2173.1026-.2954.0683-.0781.1603-.1172.2759-.1172.1074 0 .1961.0334.2661.1001.07.0651.105.144.105.2368 0 .14-.0505.2547-.1514.3443l-.0757.061-.271.1855Zm5.7861 1.9312c.2442-.2132.3842-.5095.42-.8887h-.6153c-.0325.2539-.1098.4354-.2319.5445-.1221.109-.3044.1635-.5469.1635-.2653 0-.4671-.1009-.6054-.3027-.1368-.2018-.2051-.4948-.2051-.8789v-.315c.0032-.3792.0765-.6665.2197-.8618.1449-.1969.3516-.2954.6201-.2954.2311 0 .4061.057.5249.1709.1205.1123.1953.2962.2246.5518h.6153c-.0391-.389-.1783-.6901-.4175-.9033-.2393-.2133-.555-.3199-.9473-.3199-.2913 0-.5485.0692-.7715.2075-.2213.1384-.3914.3353-.5102.5909-.1188.2555-.1782.5509-.1782.8862v.332c.0048.3272.0659.6145.1831.8618.1172.2474.2832.4387.498.5738.2165.1334.4663.2002.7495.2002.4053 0 .73-.1058.9741-.3174Zm3.6304-.4981c.1205-.2636.1807-.5696.1807-.9179v-.1978c-.0016-.3467-.0635-.6502-.1856-.9106-.122-.2621-.2954-.4623-.52-.6006-.223-.14-.4793-.21-.769-.21s-.5469.0708-.7715.2124c-.223.14-.3963.3426-.52.6079-.1221.2653-.1831.5713-.1831.918v.2002c.0016.3402.0634.6405.1855.9009.1237.2604.2979.4614.5225.603.2262.14.4834.21.7715.21.2913 0 .5485-.07.7714-.21.2246-.1416.3972-.3434.5176-.6055Zm-.6616-2.0092c.1497.2099.2246.5118.2246.9057v.1856c0 .4004-.0741.7047-.2222.9131-.1464.2083-.3564.3125-.6298.3125-.2702 0-.4818-.1067-.6348-.3199-.1514-.2132-.2271-.5151-.2271-.9057v-.2051c.0033-.3825.0798-.6779.2295-.8862.1514-.21.3605-.315.6275-.315.2734 0 .4842.105.6323.315Z"/>
</symbol>

<symbol id="client2"><path d="M17.1136 3.6477h-.1366c-.2099-.0128-.4199-.0179-.6299-.023h-.4553c-.3972 0-.802.0102-1.2042.0306a.6282.6282 0 0 0-.091 0A28.2755 28.2755 0 0 0 4.0805 6.338l-.4326.2085v22.1411l1.0119-.3433c.888-.3051 1.834-.5798 2.813-.8341a34.3334 34.3334 0 0 1 8.0952-1.0756v2.9091a24.2795 24.2795 0 0 0-1.065.0305h-.0835a32.3609 32.3609 0 0 0-6.2282.9561 31.6343 31.6343 0 0 0-7.4197 2.8913V4.825a29.7271 29.7271 0 0 1 7.784-3.1659 29.7932 29.7932 0 0 1 7.3362-.946h.4275c.511.0127 1.0094.0356 1.4774.0712a21.091 21.091 0 0 1 3.6554.5824V4.23a22.6239 22.6239 0 0 0-3.5416-.534 88.8025 88.8025 0 0 1-.0726-.0062c-.2468-.021-.4939-.0421-.7243-.0421Zm5.0392 2.9268c.6349.0483 1.2927.0712 1.958.0712a31.4667 31.4667 0 0 0 7.7131-.9892 31.7771 31.7771 0 0 0 7.4172-2.8938v27.8906a29.8153 29.8153 0 0 1-7.7865 3.166 29.9426 29.9426 0 0 1-7.3362.9434 22.4048 22.4048 0 0 1-5.5654-.6561V6.0354c.43.0992.8727.1907 1.323.267.7387.1246 1.5179.2162 2.2768.2721Zm14.1943.2162-1.0119.3407a44.567 44.567 0 0 1-2.8131.8417 34.2633 34.2633 0 0 1-8.4063 1.0782c-.6602 0-1.2673-.0178-1.8542-.056l-.807-.0533V31.7188l.6931.0611a22.8513 22.8513 0 0 0 1.9732.0839 26.8884 26.8884 0 0 0 6.6203-.857 27.7638 27.7638 0 0 0 5.1733-1.8589l.4326-.2085V6.7907Z"/><path d="M2.7371 42.9255a1.493 1.493 0 0 0-.5147-.3478 1.4858 1.4858 0 0 0-.611-.1074 1.6762 1.6762 0 0 0-.6501.1221 1.5025 1.5025 0 0 0-.506.3331 1.4636 1.4636 0 0 0-.3263.5086 1.6503 1.6503 0 0 0-.1164.6281v3.794c-.009.2674.042.5333.1493.7782.0895.1944.2188.3677.3794.5085.1517.1277.3297.2198.5212.2696.1844.0518.375.0784.5666.0788a1.418 1.418 0 0 0 .6122-.1322 1.6 1.6 0 0 0 .506-.3509 1.649 1.649 0 0 0 .3314-.5086 1.5327 1.5327 0 0 0 .1214-.6052v-.4247h-.9917v.3382a.8813.8813 0 0 1-.0582.3382.6076.6076 0 0 1-.1442.2136.6056.6056 0 0 1-.2074.1094.6973.6973 0 0 1-.2074.0356.504.504 0 0 1-.4655-.2035.8984.8984 0 0 1-.1315-.5085v-3.5372a1.208 1.208 0 0 1 .1214-.5671.5047.5047 0 0 1 .4857-.2289.527.527 0 0 1 .4427.2136.8065.8065 0 0 1 .1644.5086v.3281H3.19v-.3866a1.7885 1.7885 0 0 0-.1214-.6637 1.5638 1.5638 0 0 0-.3314-.534ZM8.629 42.8822a1.7652 1.7652 0 0 0-1.1283-.417 1.7364 1.7364 0 0 0-.592.1068 1.607 1.607 0 0 0-.5236.3102 1.559 1.559 0 0 0-.3846.5315 1.7705 1.7705 0 0 0-.1442.7349v3.6389a1.755 1.755 0 0 0 .1442.7451c.0898.1957.221.3693.3845.5086.1517.1407.3297.2497.5237.3204.1897.0698.39.1059.592.1068a1.7119 1.7119 0 0 0 .592-.1068 1.6547 1.6547 0 0 0 .5362-.3204 1.5536 1.5536 0 0 0 .3744-.5086 1.755 1.755 0 0 0 .1442-.7451v-3.6389a1.7705 1.7705 0 0 0-.1442-.7349 1.6432 1.6432 0 0 0-.3744-.5315Zm-.463 4.9053a.654.654 0 0 1-.1973.5264.726.726 0 0 1-.9335 0 .654.654 0 0 1-.1973-.5264v-3.6389a.654.654 0 0 1 .1973-.5264.7265.7265 0 0 1 .4667-.17.7265.7265 0 0 1 .4668.17.652.652 0 0 1 .1973.5264v3.6389ZM16.3673 49.4125v-6.8887h-.9537l-1.2522 3.6465h-.0177l-1.2624-3.6465h-.9436v6.8887h.9841v-4.1907h.0177l.9638 2.9625h.4908l.9714-2.9625h.0177v4.1907h.9841ZM21.9581 43.0068a1.367 1.367 0 0 0-.5566-.3764 2.1838 2.1838 0 0 0-.7134-.1068H19.226v6.8888h.9815V46.722h.5059c.3063.0139.611-.0508.8854-.1882a1.4301 1.4301 0 0 0 .5389-.5264c.1135-.1832.19-.3871.2251-.6001a4.8985 4.8985 0 0 0 .0531-.7832 3.923 3.923 0 0 0-.0961-.9841 1.467 1.467 0 0 0-.3617-.6332Zm-.506 2.1004a.8663.8663 0 0 1-.0911.3586.553.553 0 0 1-.2529.2416 1.0071 1.0071 0 0 1-.463.0864h-.4477v-2.342h.5059a.941.941 0 0 1 .4427.0865.5552.5552 0 0 1 .2302.2543c.0537.121.0829.2515.086.3839v.4578c0 .1602.0101.3255 0 .4729h-.0101ZM26.6077 42.5238h-.8045l-1.5178 6.8887h.9815l.2884-1.4799h1.3382l.2884 1.4799h.9816l-1.5558-6.8887Zm-.9057 4.4704.4832-2.4971h.0177l.4807 2.4971h-.9816ZM32.9497 46.6738h-.0177l-1.4824-4.15h-.9436v6.8887h.9815v-4.1424h.0203l1.5001 4.1424h.9233v-6.8887h-.9815v4.15ZM38.9476 42.5238l-.7893 2.7387h-.0202l-.7893-2.7387h-1.0397l1.3483 3.9771v2.9116h.9816v-2.9116l1.3483-3.9771h-1.0397ZM0 51.3577h.473v1.3274h.3213v-1.3274h.4706v-.2721H0v.2721ZM3.9767 51.0856l-.6198 1.5995h.3415l.1316-.3637h.6375l.1366.3637h.349l-.6349-1.5995h-.3415Zm-.0506.9663.2176-.5925.2175.5925h-.435ZM7.908 52.0953h.3693v.2059a.6121.6121 0 0 1-.3795.1348.4045.4045 0 0 1-.339-.1526.6684.6684 0 0 1-.1189-.417c0-.356.1543-.534.4604-.534a.338.338 0 0 1 .2277.0598.3412.3412 0 0 1 .134.1945l.3163-.061c-.0683-.3128-.2934-.4705-.678-.4705a.8044.8044 0 0 0-.559.206.782.782 0 0 0-.2302.6154.8726.8726 0 0 0 .2049.6001.7761.7761 0 0 0 .278.1839.7716.7716 0 0 0 .3291.05.961.961 0 0 0 .678-.2542v-.6307h-.6932v.2696ZM11.9226 51.0856h-.3238v1.5995h1.1206v-.2721h-.7968v-1.3274ZM15.3175 51.0856h-.3238v1.5995h.3238v-1.5995ZM18.6365 52.1536l-.6552-1.068h-.3137v1.5995h.301v-1.0452l.6426 1.0452h.3213v-1.5995h-.296v1.068ZM21.6368 51.9807h.7969v-.2721h-.7969v-.3509h.8576v-.2721H21.313v1.5995h1.2143v-.2721h-.8905v-.4323ZM28.9122 51.7162h-.6299v-.6306h-.3212v1.5995h.3212v-.6993h.6299v.6993h.3213v-1.5995h-.3213v.6306ZM31.9302 51.9807h.7994v-.2721h-.7994v-.3509h.8601v-.2721h-1.1814v1.5995h1.2117v-.2721h-.8904v-.4323ZM36.0233 51.9807c.2782-.0432.4199-.1907.4199-.445a.3828.3828 0 0 0-.1569-.356.9048.9048 0 0 0-.468-.0941h-.6779v1.5995h.3213v-.6688h.0632a.431.431 0 0 1 .1998.0356.3358.3358 0 0 1 .1139.117l.3491.5086h.3845l-.1948-.3128a1.1151 1.1151 0 0 0-.3541-.384Zm-.3239-.2212h-.2377v-.4018h.2529a.84.84 0 0 1 .3264.0382.208.208 0 0 1 .0703.1664.2095.2095 0 0 1-.0855.1591.9126.9126 0 0 1-.3264.0381ZM39.1096 51.9807h.7968v-.2721h-.7968v-.3509h.8601v-.2721h-1.1839v1.5995H40v-.2721h-.8904v-.4323Z"/>
</symbol>

<symbol id="client3"><path d="M7.4063 41.1014a.1357.1357 0 0 1 .046.0092.1217.1217 0 0 1 .0385.024l.2181.2085c-.1693.1687-.3785.3037-.6134.3957a2.3904 2.3904 0 0 1-.8698.1421 2.3144 2.3144 0 0 1-.818-.1327c-.2338-.085-.444-.2126-.6161-.3743-.1757-.1677-.311-.3643-.398-.5781a1.9267 1.9267 0 0 1-.1391-.7416 1.7988 1.7988 0 0 1 .15-.7439c.0952-.2152.2389-.4117.4225-.5781.1862-.1631.409-.2914.6544-.3767a2.5649 2.5649 0 0 1 .8425-.1327 2.2698 2.2698 0 0 1 .7825.1208c.216.0814.4142.1944.5862.3341l-.1827.2227a.1782.1782 0 0 1-.0464.0403.1252.1252 0 0 1-.0736.0166.1775.1775 0 0 1-.079-.0237l-.0982-.0593-.1363-.0758a1.5507 1.5507 0 0 0-.1827-.0734 1.8887 1.8887 0 0 0-.2481-.0592 1.8919 1.8919 0 0 0-.3245-.0237 1.759 1.759 0 0 0-.6052.0995c-.1792.0629-.3409.1582-.4744.2795-.136.1291-.2408.2806-.3081.4455a1.4986 1.4986 0 0 0-.1118.5875 1.5298 1.5298 0 0 0 .1118.5971c.0665.1634.1693.314.3026.443.1249.1203.2797.2143.4526.2749.178.0641.369.0963.5617.0947a2.3683 2.3683 0 0 0 .3326-.0189 1.3162 1.3162 0 0 0 .5044-.1588 1.6426 1.6426 0 0 0 .2154-.1469.1712.1712 0 0 1 .1036-.0379ZM13.7044 40.0538a1.8076 1.8076 0 0 1-.1473.7368c-.0888.2137-.2288.4087-.4106.572-.1819.1634-.4015.2914-.6445.3756a2.6553 2.6553 0 0 1-1.6577 0c-.2413-.0855-.4595-.2138-.6407-.3767-.1817-.1663-.3227-.3629-.4144-.578-.1964-.4772-.1964-.9988 0-1.4759.093-.2153.2338-.4125.4144-.5805.1827-.1577.4008-.2811.6407-.3624a2.6105 2.6105 0 0 1 1.6577 0c.2422.0855.4613.2137.6435.3767.1795.1646.3194.3587.4116.5709.1011.2372.151.4886.1473.7415Zm-.5726 0a1.564 1.564 0 0 0-.1036-.5923c-.0611-.1635-.1604-.3143-.2917-.443-.1278-.1217-.2852-.2172-.4608-.2795a1.9176 1.9176 0 0 0-1.2051 0c-.1755.0623-.3329.1578-.4607.2795-.1332.1279-.2335.2789-.2945.443a1.7382 1.7382 0 0 0 0 1.1846c.0616.1639.1619.3148.2945.443.128.121.2854.2157.4607.2772a1.9653 1.9653 0 0 0 1.2051 0c.1754-.0615.3328-.1562.4608-.2772.1307-.129.23-.2797.2917-.443a1.552 1.552 0 0 0 .1036-.5923ZM18.0013 40.6747l.0573.1327c.0218-.0474.0409-.0901.0627-.1327a1.2118 1.2118 0 0 1 .0709-.1303l1.3932-2.2006c.0273-.0379.0518-.0615.0791-.0687a.373.373 0 0 1 .1145-.0118h.4117v3.5792h-.4881v-2.743a.974.974 0 0 1 0-.1232l-1.4014 2.2314a.2027.2027 0 0 1-.082.0814.2458.2458 0 0 1-.1197.0299h-.0791a.2428.2428 0 0 1-.12-.0295.2013.2013 0 0 1-.0818-.0818l-1.4423-2.2456v2.8733h-.4716v-3.5721h.4117a.3736.3736 0 0 1 .1145.0118.154.154 0 0 1 .0763.0687l1.4232 2.203a.7529.7529 0 0 1 .0709.1279ZM23.2443 40.4969v1.3407h-.5453v-3.5744h1.216a2.603 2.603 0 0 1 .6789.0781c.1765.0435.3402.1194.4799.2227.1211.0968.2145.2168.2726.3506.0644.1458.0959.301.0927.4571a1.0256 1.0256 0 0 1-.1008.4572c-.0656.1371-.1663.2595-.2945.3577a1.3913 1.3913 0 0 1-.4826.2368 2.2995 2.2995 0 0 1-.6571.0829l-.6598-.0094Zm0-.3838h.6598c.1434.0017.286-.0167.4226-.0544a.9243.9243 0 0 0 .3054-.154.6345.6345 0 0 0 .1854-.2369.6856.6856 0 0 0 .0654-.3008.6036.6036 0 0 0-.0547-.2912.688.688 0 0 0-.1906-.2441c-.2083-.1413-.47-.2098-.7335-.1919h-.6598v1.4733ZM30.5731 41.8424h-.4308a.2051.2051 0 0 1-.12-.0332.2238.2238 0 0 1-.0709-.0829l-.3708-.8647h-1.8621l-.3845.8647a.1964.1964 0 0 1-.0681.0806.2049.2049 0 0 1-.1227.0355h-.4308l1.6359-3.5796h.5671l1.6577 3.5796Zm-2.6992-1.329h1.5377l-.6489-1.457a2.3666 2.3666 0 0 1-.1227-.3364l-.0627.1872a1.6904 1.6904 0 0 1-.06.1516l-.6434 1.4546ZM32.9288 38.2795a.2318.2318 0 0 1 .0818.0639l2.3856 2.6983V38.2629h.4881v3.5795h-.2727a.2653.2653 0 0 1-.1118-.0213.2985.2985 0 0 1-.0872-.0663l-2.3829-2.6959a.974.974 0 0 1 0 .1232V41.8424h-.4881v-3.5795h.289a.2586.2586 0 0 1 .0982.0166ZM39.9031 40.4188v1.4214h-.5453v-1.4214L37.85 38.2631h.4881a.1963.1963 0 0 1 .1172.0307.312.312 0 0 1 .0736.0806l.9434 1.3906c.0382.0592.0709.1137.0982.1658.0272.0521.049.1019.0681.1516l.0709-.154a1.2363 1.2363 0 0 1 .0927-.1634l.9297-1.4001a.3787.3787 0 0 1 .0709-.0758.1827.1827 0 0 1 .1173-.0355h.4935l-1.5105 2.1652ZM17.7314 32.2561c.2372.0261.4771.0474.7198.0664 3.6788-1.4299 6.791-3.7702 8.9474-6.7283 2.1565-2.9582 3.2616-6.403 3.1772-9.9038l-4.0542-3.5226c.8243 3.7273.4387 7.5804-1.1137 11.1281-1.5524 3.5478-4.2104 6.6502-7.6765 8.9602Z"/><path d="m16.2837 32.0923.1091.0189c3.7038-2.3018 6.5277-5.5161 8.1065-9.2273 1.5787-3.7112 1.8396-7.7486.749-11.59l-5.7746-5.0172c2.3357 4.1241 3.2758 8.7395 2.7111 13.3095-.5647 4.57-2.6111 8.9068-5.9011 12.5061ZM35.8679 19.8265c-.9811 3.8466-3.3638 7.3158-6.7944 9.8924-1.0019.7566-2.0826 1.4307-3.2281 2.0135 2.7935-.7134 5.3611-1.9746 7.5048-3.6864 2.1438-1.7119 3.8064-3.8286 4.8598-6.187l-2.3421-2.0325Z"/><path d="m34.9491 19.2601-3.3345-2.8972c-.0637 3.3031-1.1445 6.5311-3.13 9.3485-1.9855 2.8173-4.8032 5.1213-8.1603 6.6723h.0163a21.7448 21.7448 0 0 0 2.2385-.1161c3.1374-1.1126 5.9089-2.8827 8.0674-5.1524 2.1584-2.2697 3.6366-4.9683 4.3026-7.8551ZM16.7663 4.161 12.7883.7c-3.556 1.194-6.6145 3.2928-8.775 6.022C1.853 9.4512.6912 12.6835.6802 15.996c.0133 3.6601 1.4312 7.2118 4.0292 10.0929 2.598 2.8811 6.2278 4.9272 10.3148 5.8142 3.6484-3.862 5.7845-8.6343 6.0978-13.6232.3133-4.989-1.2125-9.9349-4.3556-14.1189ZM44.14 18.7273c-.0143-4.3425-2.0062-8.5035-5.5403-11.5741-3.5342-3.0706-8.3234-4.8012-13.3214-4.8137-2.3095-.002-4.5994.3682-6.7535 1.092l24.3556 21.1611c.834-1.8705 1.2611-3.8593 1.2596-5.8653Z"/>
</symbol>

<symbol id="client4"><path d="M13.1462 13.1028h-.0029c-2.398 0-4.342 1.7276-4.342 3.8587v.0025c0 2.1311 1.944 3.8587 4.342 3.8587h.0029c2.398 0 4.342-1.7276 4.342-3.8587v-.0025c0-2.1311-1.944-3.8587-4.342-3.8587ZM45.195 11.8693c-.0068-2.96-1.3327-5.797-3.6876-7.8904C39.1525 1.8858 35.9604.7067 32.6297.7c-3.3317.0054-6.5252 1.1838-8.8813 3.2773-2.3562 2.0934-3.6829 4.9312-3.6897 7.8921v16.3228s25.1335-2.4877 25.1363-16.3203v-.0025ZM0 33.5495c.006 2.0596.9291 4.0333 2.5676 5.4899s3.859 2.2776 6.1766 2.2837c2.317-.0061 4.5372-.8268 6.1755-2.2828 1.6384-1.456 2.5619-3.4291 2.5687-5.4883V22.1943S0 23.9266 0 33.5495Zm8.7442 2.0349c-.4529 0-.8956-.1193-1.2722-.3429-.3765-.2236-.67-.5414-.8433-.9133-.1733-.3718-.2187-.781-.1303-1.1757.0883-.3948.3064-.7574.6266-1.042.3203-.2846.7283-.4784 1.1725-.5569.4441-.0785.9045-.0382 1.323.1158.4184.154.776.4149 1.0276.7495.2516.3346.3859.7281.3859 1.1306a1.8412 1.8412 0 0 1-.1718.7811c-.1146.2477-.2831.473-.4958.6627-.2128.1898-.4656.3404-.744.4431a2.5395 2.5395 0 0 1-.8782.1557v-.0077ZM26.4177 34.4637h-1.6875v1.7432h-.8789v-4.2656h2.7773v.7119h-1.8984v1.1016h1.6875v.7089Zm4.2246-.2929c0 .4199-.0742.7881-.2227 1.1045-.1484.3164-.3613.5605-.6387.7324-.2753.1719-.5918.2578-.9492.2578-.3535 0-.6689-.085-.9463-.2549-.2773-.1699-.4922-.4121-.6445-.7265-.1523-.3164-.2295-.6797-.2314-1.0899v-.2109c0-.4199.0752-.7891.2255-1.1074.1524-.3204.3663-.5655.6416-.7354.2774-.1719.5938-.2578.9493-.2578.3554 0 .6709.0859.9463.2578.2773.1699.4912.415.6416.7354.1523.3183.2285.6865.2285 1.1044v.1905Zm-.8907-.1934c0-.4472-.08-.7871-.2402-1.0195-.1601-.2324-.3887-.3486-.6855-.3486-.295 0-.5225.1152-.6827.3457-.1601.2285-.2412.5644-.2431 1.0078v.208c0 .4355.0801.7734.2402 1.0136.1602.2403.3906.3604.6914.3604.2949 0 .5215-.1152.6797-.3457.1582-.2324.2383-.5703.2402-1.0137v-.208Zm3.7413 1.1104c0-.166-.0586-.293-.1758-.3809-.1172-.0898-.3281-.1836-.6328-.2812-.3047-.0997-.5459-.1973-.7237-.293-.4843-.2617-.7265-.6143-.7265-1.0576 0-.2305.0644-.4356.1933-.6153.1309-.1816.3174-.3232.5596-.4248.2441-.1015.5176-.1523.8203-.1523.3047 0 .5762.0557.8145.167.2382.1094.4228.2646.5537.4658.1328.2012.1992.4297.1992.6855h-.8789c0-.1953-.0615-.3466-.1846-.4541-.123-.1093-.2959-.164-.5185-.164-.2149 0-.3819.0459-.501.1377-.1192.0898-.1787.209-.1787.3574 0 .1387.0693.2549.208.3486.1406.0938.3467.1817.6181.2637.5.1504.8643.3369 1.0928.5596.2285.2226.3428.5.3428.832 0 .3691-.1397.6592-.419.8701-.2792.209-.6552.3135-1.1279.3135-.3281 0-.6269-.0596-.8965-.1787-.2695-.1211-.4756-.2861-.6181-.4951-.1407-.209-.211-.4512-.211-.7266h.8819c0 .4707.2812.7061.8437.7061.209 0 .3721-.042.4893-.126.1172-.0859.1758-.2051.1758-.3574Zm4.6904-2.4346h-1.3067v3.5537h-.8789v-3.5537h-1.289v-.7119h3.4746v.7119Zm3.0703 1.7051h-1.6875v1.1426h1.9805v.706h-2.8594v-4.2656h2.8535v.7119h-1.9746v1.0166h1.6875v.6885Zm2.3877.2871h-.7002v1.5615h-.8789v-4.2656h1.585c.5039 0 .8925.1123 1.166.3369.2734.2246.4101.542.4101.9521 0 .2911-.0634.5342-.1904.7295-.125.1934-.3154.3477-.5713.4629l.9229 1.7432v.041h-.9434l-.7998-1.5615Zm-.7002-.7119h.709c.2207 0 .3916-.0557.5127-.167.1211-.1133.1816-.2686.1816-.4658 0-.2012-.0576-.3594-.1728-.4747-.1133-.1152-.2881-.1728-.5244-.1728h-.7061v1.2803Zm5.3262.7705v1.5029h-.8789v-4.2656h1.664c.3203 0 .6016.0586.8438.1758.2441.1172.4316.2841.5625.5009.1308.2149.1963.46.1963.7354 0 .418-.1436.748-.4307.9902-.2852.2403-.6807.3604-1.1865.3604h-.7705Zm0-.7119h.7851c.2325 0 .4092-.0547.5303-.1641.123-.1094.1846-.2656.1846-.4687 0-.209-.0616-.378-.1846-.5069-.123-.1289-.293-.1953-.5098-.1992h-.8056v1.3389Zm5.5605.3662h-1.6875v1.1426h1.9805v.706h-2.8594v-4.2656h2.8535v.7119h-1.9746v1.0166h1.6875v.6885Zm4.0781-1.7051h-1.3066v3.5537h-.8789v-3.5537h-1.2891v-.7119h3.4746v.7119Zm3.0704 1.7051h-1.6875v1.1426h1.9804v.706h-2.8593v-4.2656h2.8535v.7119h-1.9746v1.0166h1.6875v.6885Zm2.3877.2871h-.7002v1.5615h-.8789v-4.2656h1.5849c.5039 0 .8926.1123 1.166.3369.2735.2246.4102.542.4102.9521 0 .2911-.0635.5342-.1904.7295-.125.1934-.3155.3477-.5713.4629l.9228 1.7432v.041h-.9433l-.7998-1.5615Zm-.7002-.7119h.7089c.2207 0 .3916-.0557.5127-.167.1211-.1133.1817-.2686.1817-.4658 0-.2012-.0576-.3594-.1729-.4747-.1133-.1152-.2881-.1728-.5244-.1728h-.706v1.2803Zm5.165 1.1543c0-.166-.0586-.293-.1758-.3809-.1172-.0898-.3281-.1836-.6328-.2812-.3047-.0997-.5459-.1973-.7236-.293-.4844-.2617-.7266-.6143-.7266-1.0576 0-.2305.0645-.4356.1934-.6153.1308-.1816.3173-.3232.5595-.4248.2442-.1015.5176-.1523.8203-.1523.3047 0 .5762.0557.8145.167.2383.1094.4229.2646.5537.4658.1328.2012.1992.4297.1992.6855h-.8789c0-.1953-.0615-.3466-.1845-.4541-.1231-.1093-.2959-.164-.5186-.164-.2148 0-.3818.0459-.501.1377-.1191.0898-.1787.209-.1787.3574 0 .1387.0693.2549.208.3486.1406.0938.3467.1817.6182.2637.5.1504.8642.3369 1.0928.5596.2285.2226.3427.5.3427.832 0 .3691-.1396.6592-.4189.8701-.2793.209-.6553.3135-1.1279.3135-.3282 0-.627-.0596-.8965-.1787-.2696-.1211-.4756-.2861-.6182-.4951-.1406-.209-.2109-.4512-.2109-.7266h.8818c0 .4707.2813.7061.8438.7061.2089 0 .372-.042.4892-.126.1172-.0859.1758-.2051.1758-.3574Z"/>
</symbol>

<symbol id="client5"><path d="M4.7569 38.7352c.2437.2762.3735.622.3667.977a1.4308 1.4308 0 0 1-.1306.6763c-.0983.2136-.2479.4042-.4376.5578-.4734.3273-1.0598.4873-1.6517.4506H0v-6.1914h2.8442c.5615-.0342 1.1184.1112 1.5758.4113.1836.1408.329.3187.4248.5197.0957.2011.1392.4197.1268.6388.0167.3415-.1004.6773-.3303.9467-.2207.246-.5257.4165-.8655.4839.3852.0644.733.252.9811.5293Zm-3.4058-.9346h1.2156c.2763.0187.5507-.0543.773-.2057a.7372.7372 0 0 0 .2076-.2746.6786.6786 0 0 0 .0534-.3303.7015.7015 0 0 0-.0546-.329.759.759 0 0 0-.203-.2759c-.229-.1557-.512-.2298-.7962-.2087H1.3511v1.6242Zm2.1076 2.3744a.7757.7757 0 0 0 .224-.2838.7107.7107 0 0 0 .0634-.3454.7221.7221 0 0 0-.0662-.3489.7875.7875 0 0 0-.2279-.2862c-.2378-.1615-.5303-.2408-.8258-.2239H1.3511v1.7029h1.2916c.2908.0154.5785-.0604.816-.2147ZM10.5709 41.3969l-1.5823-2.4197H8.394v2.4197H7.033v-6.1914h2.5766c.6495-.0415 1.2916.1469 1.7938.5263.3601.336.5774.7788.6125 1.2485.0351.4697-.1141.9355-.4209 1.3134-.3179.3334-.7522.5557-1.2289.6291l1.6847 2.4741h-1.4799Zm-2.177-3.2636h1.1133c.773 0 1.1595-.3125 1.1595-.9376a.852.852 0 0 0-.0622-.3752.917.917 0 0 0-.2219-.3205c-.2443-.186-.5589-.2762-.8754-.251H8.3808l.0132 1.8843ZM18.0102 40.1506h-2.7121l-.479 1.2462H13.392l2.4908-6.1219h1.5427l2.4808 6.1219h-1.427l-.4691-1.2462Zm-.3634-.9376-.991-2.6133-.991 2.6133h1.982ZM27.3224 41.3969h-1.3511l-3.0292-4.2103v4.2103h-1.3478v-6.1915h1.3478l3.0292 4.2346v-4.2346h1.3511v6.1915ZM35.0326 39.9149c-.2794.4674-.705.8477-1.2223 1.0919-.5881.272-1.2408.406-1.8994.3902H29.506v-6.1915h2.4049c.6575-.0157 1.3093.1151 1.8994.3811.5172.2387.9433.6151 1.2223 1.0798.2781.5036.423 1.0599.423 1.6242s-.1449 1.1207-.423 1.6243Zm-1.546-.1482c.3856-.4113.5976-.9355.5976-1.4776 0-.542-.212-1.0662-.5976-1.4775-.4661-.3726-1.0739-.5617-1.6914-.5263h-.9381v4.0077h.9381c.6175.0353 1.2253-.1538 1.6914-.5263ZM18.8558.7667S36.2945 6.795 35.9245 15.518v14.7542S18.4991 24.2411 18.8624 15.518L18.8558.7667ZM51.4603 26.8181c3.2935-2.0753 7.103-3.3607 11.0796-3.7385v-4.6187c-4.582 1.617-8.469 4.5489-11.0796 8.3572Z"/><path d="M49.4816 28.2095c2.6957-4.9699 7.3689-8.8049 13.0584-10.7163V4.1847s-24.835 8.587-24.3097 21.0092v21.0062s1.1066-.3841 2.8475-1.104c0-.6714 0-1.3489.0793-2.0295.514-5.767 3.5083-11.111 8.3245-14.8571Z"/><path d="M47.1197 36.0131a20.0515 20.0515 0 0 1 .8688-4.3011c-2.9989 3.2351-4.8151 7.2494-5.1929 11.4786-.0364.3993-.0562.7985-.0661 1.2099 1.4105-.6201 3.0523-1.3944 4.7767-2.3048a19.9433 19.9433 0 0 1-.3865-6.0826ZM48.1075 36.0887a19.0514 19.0514 0 0 0 .3072 5.5079c6.7852-3.7173 14.4094-9.4611 14.1154-16.4027v-.6049c-4.8477.4966-9.3833 2.437-12.9097 5.523-.8256 1.9124-1.3355 3.9267-1.5129 5.9767Z"/>
</symbol>

<symbol id="client6"><path d="M47.425 21.4082c-.4431-.5898-.6551-1.2869-.6047-1.9886v-2.8832c0-.8838.2004-1.5555.6013-2.015.4008-.4595 1.0894-.6883 2.0655-.6863.9173 0 1.5684.1955 1.9534.5866.42.499.6243 1.1092.5775 1.7246v.6776h-1.6408v-.6864a3.4935 3.4935 0 0 0-.0476-.6716c-.0236-.1521-.1062-.2927-.2344-.3989-.1685-.1145-.3807-.17-.5945-.1555-.2248-.0145-.4478.0441-.6251.1643-.1429.1177-.2382.2719-.2718.4399a3.3317 3.3317 0 0 0-.0645.7128v3.4991c-.0259.3376.0465.6754.2106.9826.0816.1039.1949.1863.3275.2381a.9001.9001 0 0 0 .4233.0552c.2102.0149.4188-.042.5809-.1584.1337-.1146.2197-.2641.2446-.4253a3.8588 3.8588 0 0 0 .051-.701v-.7098h1.6408v.6482c.0461.6416-.1532 1.2784-.5673 1.8126-.3771.4283-1.0192.6424-1.9636.6424-.9444 0-1.6579-.2288-2.0621-.704ZM54.2569 21.4376c-.4145-.4488-.6217-1.1029-.6217-1.9681v-3.0328c0-.8564.2072-1.5046.6217-1.9446.4144-.44 1.1075-.659 2.079-.657.9648 0 1.6545.219 2.0689.657.4145.44.6251 1.0882.6251 1.9446v3.0328c0 .8564-.2106 1.5134-.6319 1.9651-.4212.4517-1.1074.6776-2.0621.6776-.9546 0-1.6612-.2288-2.079-.6746Zm2.8434-.7274c.1484-.2811.216-.589.1971-.8975v-3.7133c.019-.3025-.0475-.6045-.1937-.8799-.0832-.1061-.1994-.1899-.3351-.2418a.9068.9068 0 0 0-.4327-.0515.9178.9178 0 0 0-.4338.0521c-.1362.0518-.253.1353-.3373.2412-.1494.2746-.2171.577-.197.8799v3.7309c-.0207.3086.047.6168.197.8975.0956.0946.2137.1704.3461.2224.1324.0519.2762.0788.4217.0788.1454 0 .2892-.0269.4216-.0788a1.0225 1.0225 0 0 0 .3461-.2224v-.0176ZM61.0035 13.9236h1.7666l1.3283 5.5956 1.3589-5.5956h1.719l.1733 8.0767H66.079l-.1359-5.6132-1.3113 5.6132h-1.0192l-1.3589-5.6338-.1257 5.6338h-1.2841l.1596-8.0767ZM69.3302 13.9236h2.7517c1.5854 0 2.378.7644 2.378 2.2934 0 1.4644-.8345 2.1956-2.5037 2.1936h-.9376v3.5897H69.32l.0102-8.0767Zm2.3509 3.4518c.1678.0184.3382.0051.4995-.039a1.2254 1.2254 0 0 0 .4347-.2161c.1948-.2728.2807-.5932.2446-.9121a2.5254 2.5254 0 0 0-.0816-.7332.5943.5943 0 0 0-.125-.2216.703.703 0 0 0-.2147-.1626 1.7586 1.7586 0 0 0-.7575-.129h-.6591v2.4136h.6591ZM76.9094 13.9236h1.8243l1.8718 8.0767h-1.583l-.3703-1.8623h-1.6273l-.3805 1.8623h-1.6068l1.8718-8.0767Zm1.5593 5.2789-.6353-3.3902-.6352 3.3902h1.2705ZM82.1173 13.9236h1.189l2.2762 4.6073v-4.6073h1.4098v8.0767H85.861l-2.2897-4.8097v4.8097h-1.4574l.0034-8.0767ZM90.2945 18.9208l-1.8923-4.9859h1.5933l1.1551 3.2027 1.0837-3.2027h1.5593l-1.8685 4.9859v3.0795h-1.6306v-3.0795ZM50.0477 25.5316v.4224h-1.386v3.2819h-.581V25.954h-1.3928v-.4224h3.3598ZM54.3927 29.2362h-.4485a.1997.1997 0 0 1-.1257-.0352.1937.1937 0 0 1-.0747-.085l-.4009-.8799h-1.9228l-.4009.8799a.243.243 0 0 1-.0612.0997.2078.2078 0 0 1-.1256.0352h-.4485l1.6986-3.7041h.5912l1.719 3.6894Zm-2.813-1.3755h1.6036l-.6795-1.5074a2.6989 2.6989 0 0 1-.1257-.349c-.0238.0704-.0442.1378-.0645.1965l-.0612.1554-.6727 1.5045ZM57.3211 28.8724c.1064.0048.213.0048.3193 0a1.9172 1.9172 0 0 0 .2718-.044 2.1036 2.1036 0 0 0 .2446-.0675c.0748-.0264.1495-.0587.2276-.0909v-.8331h-.6794a.1372.1372 0 0 1-.0494-.0064.1246.1246 0 0 1-.0423-.0229.0864.0864 0 0 1-.0259-.0304.0742.0742 0 0 1-.0081-.0371v-.2845h1.3181v1.4197a2.506 2.506 0 0 1-.7168.3021 3.0556 3.0556 0 0 1-.4247.0763 5.1283 5.1283 0 0 1-.4959.0234 2.5908 2.5908 0 0 1-.8562-.1378c-.2543-.0883-.4854-.22-.6794-.3872-.1891-.1689-.338-.3682-.4382-.5866a1.8513 1.8513 0 0 1-.1563-.7685 1.9198 1.9198 0 0 1 .1529-.7744c.0977-.2195.2469-.4193.4382-.5866.1939-.1667.4251-.2974.6795-.3843a2.854 2.854 0 0 1 .9104-.1379 3.4305 3.4305 0 0 1 .4722.0323 2.333 2.333 0 0 1 .4043.0939c.1188.0385.2327.0877.3397.1466.1041.0579.203.1226.2956.1936l-.1631.2288a.1418.1418 0 0 1-.0551.0508.1705.1705 0 0 1-.0774.0196.2223.2223 0 0 1-.1053-.0293 2.1135 2.1135 0 0 1-.1665-.088 1.5038 1.5038 0 0 0-.2276-.0997 2.1267 2.1267 0 0 0-.3125-.0822 2.6144 2.6144 0 0 0-.4315-.0322 2.009 2.009 0 0 0-.6556.1026c-.1891.0655-.3595.1656-.4994.2933-.1408.1332-.2484.29-.316.4606a1.732 1.732 0 0 0 0 1.2348c.0744.1742.1901.3331.3398.4664.1393.1271.3084.2271.496.2933.216.0641.4449.089.6726.0734ZM62.7362 28.8136h1.8549v.4223h-2.4222v-3.7043h.5809l-.0136 3.282ZM66.5208 29.2359h-.581v-3.7043h.581v3.7043ZM68.6814 25.5492a.279.279 0 0 1 .0883.0675l2.4833 2.7923a.8812.8812 0 0 1 0-.132V25.517h.5062v3.7192h-.2921a.275.275 0 0 1-.1257-.0206.3276.3276 0 0 1-.0918-.0704l-2.4799-2.7894V29.2362h-.4858v-3.7046h.3024a.2678.2678 0 0 1 .0951.0176ZM76.0364 25.5316v.4077h-2.0587v1.2231h1.668v.393h-1.668v1.2641h2.0587v.4077h-2.6566v-3.6956h2.6566ZM15.1617 2.6555l25.7951 6.3233v22.158l-25.7951-6.3204V2.6555ZM13.5073.7667v25.1261l29.1006 7.1357V7.9054L13.5073.7667Z"/><path d="M29.1039 44.6922 0 37.5505V12.4271l29.1039 7.1388v25.1263Z"/><path d="m13.9897 2.371 25.4587 6.244-10.8269 9.3499-25.4621-6.247 10.8303-9.347ZM13.5073.7667 0 12.4277l29.1039 7.1385 13.5039-11.661L13.5073.7667ZM30.7414 43.2788l11.8664-10.2473-11.8664-2.9122v13.1595Z"/>
</symbol>

<symbol id="send-icon"><path d="M24 0 0 13.5l7.67 2.8407L19.5 5.25l-8.9983 12.1396.0073.0027-.009-.0027v6.6105l4.3013-5.0181 5.4488 2.0181L24 0Z" fill="#fff"/>
</symbol>

<symbol id="name-icon" viewBox="0 0 32 32"><path d="M16 16c4.42 0 8-3.58 8-8s-3.58-8-8-8-8 3.58-8 8 3.58 8 8 8zm0 4c-5.34 0-16 2.68-16 8v2c0 1.1.9 2 2 2h28c1.1 0 2-.9 2-2v-2c0-5.32-10.66-8-16-8z"/>
</symbol>

<symbol id="phone-black-icon" viewBox="0 0 32 32"><path d="m27.419 20.852-4.201-.48a3.293 3.293 0 0 0-2.713.943l-3.044 3.044A24.888 24.888 0 0 1 6.56 13.458l3.06-3.06a3.293 3.293 0 0 0 .943-2.713l-.48-4.168A3.31 3.31 0 0 0 6.791.589H3.929C2.06.589.505 2.144.621 4.013c.877 14.126 12.174 25.407 26.284 26.284 1.869.116 3.424-1.439 3.424-3.308v-2.861c.016-1.671-1.241-3.077-2.911-3.275z"/>
</symbol>

<symbol id="email-black-icon" viewBox="0 0 43 32"><path d="M37.333 0h-32c-2.2 0-3.98 1.8-3.98 4l-.02 24c0 2.2 1.8 4 4 4h32c2.2 0 4-1.8 4-4V4c0-2.2-1.8-4-4-4zm-.8 8.5-14.14 8.84c-.64.4-1.48.4-2.12 0L6.133 8.5c-.5-.32-.8-.86-.8-1.44 0-1.34 1.46-2.14 2.6-1.44l13.4 8.38 13.4-8.38c1.14-.7 2.6.1 2.6 1.44 0 .58-.3 1.12-.8 1.44z"/>
</symbol>

<symbol id="checkbox-vector" viewBox="0 0 34 32"><path fill="#2196f3" style="fill:var(--color1, #2196f3)" d="M4.267 0h25.6a4.267 4.267 0 0 1 4.267 4.267v23.467a4.267 4.267 0 0 1-4.267 4.267h-25.6A4.267 4.267 0 0 1 0 27.734V4.267A4.267 4.267 0 0 1 4.267 0z"/><path fill="#fff" stroke="#fff" stroke-width=".427" style="fill:var(--color2, #fff);stroke:var(--color2, #fff)" d="m8.442 16.537-.147-.14-2.205 2.088 7.767 7.41 16.318-15.567-2.19-2.089-14.128 13.465-5.416-5.167z"/>
</symbol>

<symbol id="x-icon" viewBox="0 0 32 32"><path d="M32 3.223 28.777 0 16 12.777 3.223 0 0 3.223 12.777 16 0 28.777 3.223 32 16 19.223 28.777 32 32 28.777 19.223 16 32 3.223z"/>
</symbol>

</defs>
</svg>
